#define close_hover_width 16
#define close_hover_height 16
static unsigned char close_hover_bits[] = {
   0xe0, 0x07, 0xf8, 0x1f, 0xfc, 0x3f, 0xee, 0x77, 0xc6, 0x63, 0x8f, 0xf1,
   0x1f, 0xf8, 0x3f, 0xfc, 0x3f, 0xfc, 0x1f, 0xf8, 0x8f, 0xf1, 0xc6, 0x63,
   0xee, 0x77, 0xfc, 0x3f, 0xf8, 0x1f, 0xe0, 0x07 };
