#define max_hover_width 16
#define max_hover_height 16
static unsigned char max_hover_bits[] = {
   0xe0, 0x07, 0xf8, 0x1f, 0xfc, 0x3f, 0xfe, 0x7f, 0x0e, 0x70, 0x0f, 0xf0,
   0xcf, 0xf3, 0xcf, 0xf3, 0xcf, 0xf3, 0xcf, 0xf3, 0x0f, 0xf0, 0x0e, 0x70,
   0xfe, 0x7f, 0xfc, 0x3f, 0xf8, 0x1f, 0xe0, 0x07 };
